<?xml version="1.0" encoding="UTF-8"?>
<svg xmlns="http://www.w3.org/2000/svg" version="1.1" viewBox="0 0 1133.9 1133.9">
  <defs>
    <style>
      .cls-1 {
        fill-rule: evenodd;
      }

      .cls-1, .cls-2 {
        fill: #1e3a1f;
      }

      .cls-3 {
        fill: #66563a;
      }
    </style>
  </defs>
  <!-- Generator: Adobe Illustrator 28.6.0, SVG Export Plug-In . SVG Version: 1.2.0 Build 709)  -->
  <g>
    <g id="Layer_1">
      <g>
        <rect class="cls-2" x="343.6" y="654.2" width="24.1" height="206.9"/>
        <rect class="cls-2" x="390.6" y="654.2" width="24.1" height="206.9"/>
        <rect class="cls-2" x="437.6" y="654.2" width="24.1" height="206.9"/>
        <rect class="cls-2" x="484.5" y="654.2" width="24.1" height="206.9"/>
        <rect class="cls-2" x="531.5" y="654.2" width="24.1" height="206.9"/>
        <rect class="cls-2" x="578.4" y="654.2" width="24.1" height="206.9"/>
        <rect class="cls-2" x="625.4" y="654.2" width="24.1" height="206.9"/>
        <rect class="cls-2" x="672.4" y="654.2" width="24.1" height="206.9"/>
        <rect class="cls-2" x="719.3" y="654.2" width="24.1" height="206.9"/>
        <rect class="cls-2" x="766.3" y="654.2" width="24.1" height="206.9"/>
        <g>
          <rect class="cls-2" x="202.8" y="49" width="24.1" height="812.1"/>
          <rect class="cls-2" x="249.7" y="49" width="24.1" height="812.1"/>
          <rect class="cls-2" x="296.7" y="49" width="24.1" height="812.1"/>
          <rect class="cls-2" x="343.6" y="49" width="24.1" height="137.9"/>
          <rect class="cls-2" x="390.6" y="49" width="24.1" height="137.9"/>
          <rect class="cls-2" x="437.6" y="49" width="24.1" height="137.9"/>
          <rect class="cls-2" x="484.5" y="49" width="24.1" height="137.9"/>
          <rect class="cls-2" x="531.5" y="49" width="24.1" height="137.9"/>
          <rect class="cls-2" x="578.4" y="49" width="24.1" height="137.9"/>
          <rect class="cls-2" x="625.4" y="49" width="24.1" height="137.9"/>
          <rect class="cls-2" x="672.4" y="49" width="24.1" height="137.9"/>
          <rect class="cls-2" x="719.3" y="49" width="24.1" height="137.9"/>
          <rect class="cls-2" x="766.3" y="49" width="24.1" height="137.9"/>
          <rect class="cls-2" x="813.2" y="49" width="24.1" height="812.1"/>
          <rect class="cls-2" x="860.2" y="49" width="24.1" height="812.1"/>
          <rect class="cls-2" x="907.2" y="49" width="24.1" height="812.1"/>
        </g>
      </g>
      <path class="cls-3" d="M739.9,363c3.8,0,6.9-3.1,6.9-6.9v-20.7h6.9c3.8,0,6.9-3.1,6.9-6.9v-27.7c0-3.8-3.1-6.9-6.9-6.9h-26.2l-157.7-68.6c-1.8-.8-3.8-.8-5.5,0l-157.7,68.6h-26.2c-3.8,0-6.9,3.1-6.9,6.9v27.7c0,3.8,3.1,6.9,6.9,6.9h6.9v20.7c0,3.8,3.1,6.9,6.9,6.9h6.9v179.8h-6.9c-3.8,0-6.9,3.1-6.9,6.9v20.7h-6.9c-3.8,0-6.9,3.1-6.9,6.9v27.7c0,3.8,3.1,6.9,6.9,6.9h373.5c3.8,0,6.9-3.1,6.9-6.9v-27.7c0-3.8-3.1-6.9-6.9-6.9h-6.9v-20.7c0-3.8-3.1-6.9-6.9-6.9h-6.9v-179.8h6.9ZM733,349.2h-41.5v-13.8h41.5v13.8ZM684.6,542.8c-3.8,0-6.9,3.1-6.9,6.9v20.7h-27.7v-20.7c0-3.8-3.1-6.9-6.9-6.9h-6.9v-179.8h6.9c3.8,0,6.9-3.1,6.9-6.9v-20.7h27.7v20.7c0,3.8,3.1,6.9,6.9,6.9h6.9v179.8h-6.9ZM553.2,570.5v-20.7c0-3.8-3.1-6.9-6.9-6.9h-6.9v-179.8h6.9c3.8,0,6.9-3.1,6.9-6.9v-20.7h27.7v20.7c0,3.8,3.1,6.9,6.9,6.9h6.9v179.8h-6.9c-3.8,0-6.9,3.1-6.9,6.9v20.7h-27.7ZM456.3,570.5v-20.7c0-3.8-3.1-6.9-6.9-6.9h-6.9v-179.8h6.9c3.8,0,6.9-3.1,6.9-6.9v-20.7h27.7v20.7c0,3.8,3.1,6.9,6.9,6.9h6.9v179.8h-6.9c-3.8,0-6.9,3.1-6.9,6.9v20.7h-27.7ZM525.5,542.8h-13.8v-179.8h13.8v179.8ZM532.4,349.2h-34.6v-13.8h41.5v13.8h-6.9ZM497.8,556.6h41.5v13.8h-41.5v-13.8ZM622.3,542.8h-13.8v-179.8h13.8v179.8ZM629.2,349.2h-34.6v-13.8h41.5v13.8h-6.9ZM594.7,556.6h41.5v13.8h-41.5v-13.8ZM567,239.1l125.8,54.7h-251.6l125.8-54.7ZM387.2,307.7h359.6v13.8h-359.6v-13.8ZM442.5,335.3v13.8h-41.5v-13.8h41.5ZM414.9,363h13.8v179.8h-13.8v-179.8ZM401,556.6h41.5v13.8h-41.5v-13.8ZM746.8,598.1h-359.6v-13.8h359.6v13.8ZM691.5,570.5v-13.8h41.5v13.8h-41.5ZM719.1,542.8h-13.8v-179.8h13.8v179.8Z"/>
      <g>
        <path class="cls-3" d="M278.8,970.4c-2.7,0-5.3-.3-7.6-1-2.4-.7-4.4-1.5-6-2.4l-2.2,2.2h-2.7l-.4-16.2h2.7c.6,1.5,1.4,3.2,2.3,4.9.9,1.7,2,3.2,3.3,4.6,1.3,1.4,2.7,2.6,4.3,3.4s3.4,1.3,5.6,1.3,5-.7,6.6-2.1c1.5-1.4,2.3-3.2,2.3-5.3s-.6-3.2-1.9-4.4c-1.3-1.2-3.3-2.2-6-3.1-1.8-.6-3.4-1.1-4.9-1.6-1.5-.5-2.9-1-4.2-1.5-3-1.2-5.2-2.9-6.7-5.1s-2.2-4.7-2.2-7.5.4-3.4,1.1-5c.8-1.6,1.9-3.1,3.3-4.3,1.4-1.2,3.2-2.2,5.3-2.9,2.2-.8,4.5-1.1,7.1-1.1s4.8.3,7,1,3.9,1.4,5.1,2.1l1.9-1.9h2.7l.3,15.3h-2.7c-.6-1.6-1.4-3.3-2.2-5s-1.8-3.1-2.7-4.3c-1-1.2-2.2-2.2-3.6-2.9-1.3-.7-2.9-1.1-4.7-1.1s-4.1.6-5.6,1.9c-1.4,1.3-2.2,2.9-2.2,4.8s.6,3.3,1.9,4.4c1.3,1.1,3.2,2.1,5.8,3,1.6.5,3.1,1.1,4.8,1.6,1.6.5,3.1,1,4.3,1.5,3,1.2,5.4,2.8,7,4.9,1.6,2.1,2.4,4.6,2.4,7.7s-.5,3.8-1.4,5.6c-.9,1.8-2.1,3.3-3.7,4.5-1.7,1.3-3.6,2.3-5.8,3.1-2.2.7-4.8,1.1-7.7,1.1Z"/>
        <path class="cls-3" d="M340.9,937.2h-2.5c-.7-1.9-1.7-4-3.1-6.1-1.4-2.2-2.8-3.4-4-3.5-.7,0-1.5-.2-2.5-.2s-1.8,0-2.5,0h-1.5v35.1c0,.8.1,1.4.4,2,.3.6.8,1,1.6,1.4.5.2,1.2.4,2.3.6,1,.2,1.9.3,2.6.4v2.5h-24.9v-2.5c.6,0,1.5-.2,2.6-.3,1.1-.1,1.9-.3,2.3-.4.8-.3,1.4-.8,1.6-1.4.3-.6.4-1.2.4-2v-35.4h-1.5c-.7,0-1.6,0-2.5,0-1,0-1.8.1-2.5.2-1.2.2-2.5,1.3-4,3.5-1.4,2.2-2.5,4.2-3.1,6.1h-2.5v-12.8h43.3v12.8Z"/>
        <path class="cls-3" d="M384.3,969.2h-24.4v-2.5c1.1,0,2.5-.3,4-.6,1.5-.3,2.3-.7,2.3-1.2s0-.4,0-.6c0-.2-.1-.5-.3-.9l-3.8-9.3h-15.4c-.4.9-.7,1.9-1.2,3-.4,1.2-.8,2.2-1.1,3.1-.4,1.2-.6,2-.7,2.6,0,.5-.1.9-.1,1.1,0,.7.5,1.2,1.5,1.7,1,.5,2.7.8,5.1,1v2.5h-18.3v-2.5c.7,0,1.5-.2,2.3-.3s1.6-.4,2.1-.7c.9-.5,1.6-1.1,2.2-1.9.6-.7,1.1-1.6,1.5-2.6,2.4-5.9,4.9-11.8,7.3-17.8s5.2-12.5,8.1-19.6h6.3c4.1,10.1,7.3,18.1,9.7,24s4.3,10.8,6,14.6c.3.6.6,1.2,1,1.7.4.5,1,1,1.8,1.5.6.3,1.3.6,2,.8.8.2,1.5.3,2.1.3v2.5ZM360.8,951.1l-6.5-16.2-6.4,16.2h12.9Z"/>
        <path class="cls-3" d="M419.8,929c2.7,1.8,4.9,4.2,6.6,7.1s2.5,6.6,2.5,10.9-.8,7.1-2.3,9.9c-1.5,2.8-3.5,5.1-6,6.9-2.5,1.8-5.4,3.1-8.6,4-3.2.9-6.6,1.3-10.1,1.3h-22.5v-2.5c.7,0,1.5,0,2.5-.2,1-.1,1.7-.2,2-.4.8-.3,1.3-.7,1.6-1.3.3-.5.4-1.2.4-1.9v-31.7c0-.7-.1-1.4-.4-1.9-.3-.6-.8-1-1.6-1.4-.8-.4-1.6-.6-2.5-.7-.9-.1-1.6-.2-2.1-.3v-2.5h23.8c2.5,0,5.3.3,8.2,1s5.7,1.9,8.4,3.6ZM413.4,961.1c1-1.7,1.8-3.7,2.3-6,.5-2.3.7-5,.7-8s-.3-5.7-.9-8.1-1.6-4.5-2.8-6.2c-1.2-1.7-2.7-3.1-4.6-4-1.8-.9-3.9-1.4-6.2-1.4s-1.6,0-2.5,0-1.6,0-2.1,0v34c0,.8,0,1.4.3,2s.5,1.1,1,1.5,1.1.8,1.8,1c.7.2,1.6.4,2.8.4,2.4,0,4.4-.4,6.1-1.3,1.7-.9,3.1-2.2,4.1-3.9Z"/>
        <path class="cls-3" d="M449.6,970.4c-2.7,0-5.3-.3-7.6-1-2.4-.7-4.4-1.5-6-2.4l-2.2,2.2h-2.7l-.4-16.2h2.7c.6,1.5,1.4,3.2,2.3,4.9.9,1.7,2,3.2,3.3,4.6,1.3,1.4,2.7,2.6,4.3,3.4s3.4,1.3,5.6,1.3,5-.7,6.6-2.1c1.5-1.4,2.3-3.2,2.3-5.3s-.6-3.2-1.9-4.4c-1.3-1.2-3.3-2.2-6-3.1-1.8-.6-3.4-1.1-4.9-1.6-1.5-.5-2.9-1-4.2-1.5-3-1.2-5.2-2.9-6.7-5.1s-2.2-4.7-2.2-7.5.4-3.4,1.1-5c.8-1.6,1.9-3.1,3.3-4.3,1.4-1.2,3.2-2.2,5.3-2.9,2.2-.8,4.5-1.1,7.1-1.1s4.8.3,7,1,3.9,1.4,5.1,2.1l1.9-1.9h2.7l.3,15.3h-2.7c-.6-1.6-1.4-3.3-2.2-5s-1.8-3.1-2.7-4.3c-1-1.2-2.2-2.2-3.6-2.9-1.3-.7-2.9-1.1-4.7-1.1s-4.1.6-5.6,1.9c-1.4,1.3-2.2,2.9-2.2,4.8s.6,3.3,1.9,4.4c1.3,1.1,3.2,2.1,5.8,3,1.6.5,3.1,1.1,4.8,1.6,1.6.5,3.1,1,4.3,1.5,3,1.2,5.4,2.8,7,4.9,1.6,2.1,2.4,4.6,2.4,7.7s-.5,3.8-1.4,5.6c-.9,1.8-2.1,3.3-3.7,4.5-1.7,1.3-3.6,2.3-5.8,3.1-2.2.7-4.8,1.1-7.7,1.1Z"/>
        <path class="cls-3" d="M518.9,969.2h-17.2c-3-4.5-5.4-8.2-7.4-10.8-2-2.7-4.4-5.8-7.3-9.3h-1.7v13.6c0,.8.1,1.4.4,1.9.3.5.8,1,1.6,1.3.4.2,1,.3,1.9.5s1.6.3,2.2.4v2.5h-23.9v-2.5c.6,0,1.4-.2,2.4-.3,1-.1,1.7-.3,2.1-.4.8-.3,1.3-.8,1.6-1.3.3-.5.4-1.2.4-2v-31.6c0-.8-.1-1.4-.3-1.9-.2-.5-.8-.9-1.7-1.3-.7-.3-1.5-.5-2.4-.7-.9-.2-1.6-.3-2.2-.4v-2.5h25.1c5.6,0,9.9.9,12.8,2.6s4.4,4.4,4.4,8-.9,5.6-2.7,7.6c-1.8,1.9-4.5,3.4-8.2,4.5,1.4,1.8,3.1,4,5,6.4s3.9,4.9,5.9,7.5c.7.8,1.5,1.8,2.7,3,1.1,1.2,2.1,1.9,3,2.2.5.1,1.1.3,1.8.4.7.1,1.3.2,1.6.2v2.5ZM497.4,935.9c0-3-.8-5.2-2.5-6.5-1.7-1.4-4.1-2.1-7.1-2.1h-2.5v18.7h2.4c3.1,0,5.5-.8,7.2-2.4s2.6-4.2,2.6-7.7Z"/>
        <path class="cls-3" d="M552.2,935.8h-2.4c-.6-1.7-1.7-3.4-3.2-5.2-1.5-1.7-3-2.8-4.4-3.1-.6-.1-1.5-.2-2.6-.3s-2.1,0-2.8,0h-6.5v17.2h4.6c1.2,0,2.2-.1,3.2-.4.9-.3,1.8-.8,2.6-1.6s1-1.3,1.5-2.6c.5-1.2.8-2.3,1-3.2h2.4v18.7h-2.4c-.1-.9-.4-2-1-3.3-.5-1.3-1-2.3-1.5-2.8-.7-.8-1.5-1.3-2.5-1.6-.9-.3-2-.4-3.3-.4h-4.6v12.9c0,1.3,0,2.4.3,3.2s.6,1.4,1.1,1.8c.5.4,1.2.7,2.2.8.9.1,2.2.2,3.7.2s1.6,0,2.6,0c1,0,1.9,0,2.7-.2.9-.1,1.7-.3,2.5-.5.8-.2,1.3-.5,1.7-.9,1-1,2.1-2.6,3.4-4.7,1.3-2.1,2.1-3.7,2.5-4.7h2.3l-.9,13.9h-42v-2.5c.6,0,1.4-.1,2.4-.3,1-.1,1.7-.3,2.1-.4.8-.3,1.3-.8,1.6-1.3.3-.5.4-1.2.4-2v-31.6c0-.8-.1-1.4-.3-1.9-.2-.5-.8-.9-1.7-1.3-.5-.3-1.3-.5-2.3-.7-1-.2-1.7-.3-2.2-.4v-2.5h39.7v11.4Z"/>
        <path class="cls-3" d="M603.6,927c-.7,0-1.4.2-2,.4s-1.3.5-2,.9c-.9.5-1.6,1.1-2.1,1.7-.5.6-1,1.4-1.5,2.5-.7,1.5-1.6,3.6-2.7,6.4-1.2,2.8-2.5,6-4,9.5-1.3,3.2-2.8,6.7-4.4,10.5-1.6,3.8-3.1,7.5-4.5,10.9h-6.3c-2.9-7.2-5.9-14.5-9-22-3-7.4-5.2-12.6-6.4-15.5-.5-1.1-1-1.8-1.4-2.4-.5-.5-1.2-1.1-2.2-1.7-.7-.4-1.3-.7-1.9-.8-.5-.2-1.3-.3-2.2-.4v-2.5h24.2v2.4c-2.3.3-3.8.6-4.6.9-.8.3-1.2.7-1.2,1.2s0,.5.1.7c0,.3.2.6.3,1.1.7,1.8,1.9,4.9,3.7,9.1,1.8,4.2,4.4,10.6,7.8,19.2,2.1-5.2,3.9-9.6,5.3-13.3,1.4-3.6,2.6-6.8,3.7-9.6.5-1.3,1-2.6,1.3-3.8.3-1.2.5-2,.5-2.6s-.5-1.2-1.5-1.7-2.8-.8-5.4-1v-2.5h18.1v2.5Z"/>
        <path class="cls-3" d="M626.5,969.2h-24.8v-2.5c.6,0,1.4-.1,2.5-.2,1.1,0,1.9-.2,2.3-.4.8-.3,1.3-.7,1.6-1.2.3-.5.4-1.2.4-2v-31.7c0-.7-.1-1.3-.4-1.9-.3-.5-.8-1-1.6-1.3-.5-.2-1.3-.4-2.2-.6-1-.2-1.8-.4-2.6-.5v-2.5h24.8v2.5c-.6,0-1.4.2-2.4.3-.9.1-1.7.3-2.4.5-.8.3-1.4.7-1.6,1.3-.3.6-.4,1.2-.4,2v31.7c0,.8.1,1.4.4,1.9.3.5.8,1,1.6,1.3.4.2,1.2.4,2.2.6s1.9.3,2.6.3v2.5Z"/>
        <path class="cls-3" d="M644.3,970.4c-2.7,0-5.3-.3-7.6-1-2.4-.7-4.4-1.5-6-2.4l-2.2,2.2h-2.7l-.4-16.2h2.7c.6,1.5,1.4,3.2,2.3,4.9.9,1.7,2,3.2,3.3,4.6,1.3,1.4,2.7,2.6,4.3,3.4,1.6.9,3.4,1.3,5.6,1.3s5-.7,6.6-2.1c1.5-1.4,2.3-3.2,2.3-5.3s-.6-3.2-1.9-4.4c-1.3-1.2-3.3-2.2-6-3.1-1.8-.6-3.4-1.1-4.9-1.6-1.5-.5-2.9-1-4.2-1.5-3-1.2-5.2-2.9-6.7-5.1s-2.2-4.7-2.2-7.5.4-3.4,1.1-5c.8-1.6,1.9-3.1,3.3-4.3,1.4-1.2,3.2-2.2,5.3-2.9,2.2-.8,4.5-1.1,7.1-1.1s4.8.3,7,1,3.9,1.4,5.1,2.1l1.9-1.9h2.7l.3,15.3h-2.7c-.6-1.6-1.4-3.3-2.2-5s-1.8-3.1-2.7-4.3c-1-1.2-2.2-2.2-3.6-2.9-1.3-.7-2.9-1.1-4.7-1.1s-4.1.6-5.6,1.9c-1.4,1.3-2.2,2.9-2.2,4.8s.6,3.3,1.9,4.4c1.3,1.1,3.2,2.1,5.8,3,1.6.5,3.1,1.1,4.8,1.6,1.6.5,3.1,1,4.3,1.5,3,1.2,5.4,2.8,7,4.9,1.6,2.1,2.4,4.6,2.4,7.7s-.5,3.8-1.4,5.6c-.9,1.8-2.1,3.3-3.7,4.5-1.7,1.3-3.6,2.3-5.8,3.1-2.2.7-4.8,1.1-7.7,1.1Z"/>
        <path class="cls-3" d="M688.2,969.2h-24.8v-2.5c.6,0,1.4-.1,2.5-.2,1.1,0,1.9-.2,2.3-.4.8-.3,1.3-.7,1.6-1.2.3-.5.4-1.2.4-2v-31.7c0-.7-.1-1.3-.4-1.9-.3-.5-.8-1-1.6-1.3-.5-.2-1.3-.4-2.2-.6-1-.2-1.8-.4-2.6-.5v-2.5h24.8v2.5c-.6,0-1.4.2-2.4.3-.9.1-1.7.3-2.4.5-.8.3-1.4.7-1.6,1.3-.3.6-.4,1.2-.4,2v31.7c0,.8.1,1.4.4,1.9.3.5.8,1,1.6,1.3.4.2,1.2.4,2.2.6s1.9.3,2.6.3v2.5Z"/>
        <path class="cls-3" d="M727.2,929.4c2.2,2,4,4.5,5.2,7.3,1.3,2.9,1.9,6.1,1.9,9.8s-.5,6.4-1.6,9.3-2.7,5.5-4.7,7.6c-2.2,2.2-4.7,3.9-7.6,5.2-2.9,1.2-6.4,1.8-10.4,1.8s-6.3-.5-9.2-1.6c-2.9-1.1-5.5-2.6-7.7-4.7-2.2-2-3.9-4.4-5.2-7.3s-1.9-6-1.9-9.6.6-7,1.9-9.9c1.2-3,3-5.5,5.2-7.6,2.2-2.1,4.7-3.7,7.7-4.8,3-1.1,6.1-1.7,9.5-1.7s6.5.5,9.4,1.6c2.9,1.1,5.5,2.6,7.6,4.6ZM719.1,961.4c.9-1.9,1.6-4.1,2-6.5.4-2.4.6-5.2.6-8.2s-.2-5.1-.6-7.6c-.4-2.5-1-4.6-1.9-6.6-.9-1.9-2.1-3.5-3.6-4.6-1.5-1.2-3.4-1.7-5.6-1.7-3.8,0-6.7,1.8-8.7,5.4s-3,8.7-3,15.3.2,5.4.6,7.9c.4,2.5,1.1,4.7,2,6.5.9,1.9,2.1,3.3,3.6,4.4s3.2,1.6,5.4,1.6,3.9-.5,5.4-1.6c1.5-1.1,2.7-2.5,3.6-4.3Z"/>
        <path class="cls-3" d="M783.7,926.9c-.6,0-1.4.2-2.5.3-1.1.2-2.1.6-3,1.2-.8.6-1.3,1.5-1.7,2.9-.3,1.4-.5,3.4-.5,6.1v32h-5.6l-27.9-34.6v21c0,2.6.2,4.6.5,5.9.3,1.4.9,2.3,1.7,3,.6.5,1.5.9,2.7,1.2,1.2.4,2.2.6,3,.7v2.5h-19.2v-2.5c.8,0,1.8-.2,2.8-.5s1.9-.6,2.7-1.1c.8-.6,1.4-1.5,1.7-2.8.3-1.2.5-3.3.5-6.2v-21.2c0-1.1-.2-2-.5-3-.3-.9-.8-1.7-1.5-2.4-.7-.7-1.6-1.3-2.5-1.7-1-.4-2-.7-3.3-1v-2.5h16.8l24.5,30.3v-16.9c0-2.7-.2-4.7-.5-6-.4-1.3-.9-2.3-1.7-2.9-.6-.5-1.5-.9-2.7-1.2-1.2-.3-2.2-.6-2.9-.7v-2.5h19.2v2.5Z"/>
        <path class="cls-3" d="M819.7,935.8h-2.4c-.6-1.7-1.7-3.4-3.2-5.2-1.5-1.7-3-2.8-4.4-3.1-.6-.1-1.5-.2-2.6-.3s-2.1,0-2.8,0h-6.5v17.2h4.6c1.2,0,2.2-.1,3.2-.4.9-.3,1.8-.8,2.6-1.6s1-1.3,1.5-2.6c.5-1.2.8-2.3,1-3.2h2.4v18.7h-2.4c-.1-.9-.4-2-1-3.3-.5-1.3-1-2.3-1.5-2.8-.7-.8-1.5-1.3-2.5-1.6-.9-.3-2-.4-3.3-.4h-4.6v12.9c0,1.3,0,2.4.3,3.2s.6,1.4,1.1,1.8c.5.4,1.2.7,2.2.8.9.1,2.2.2,3.7.2s1.6,0,2.6,0c1,0,1.9,0,2.7-.2.9-.1,1.7-.3,2.5-.5.8-.2,1.3-.5,1.7-.9,1-1,2.1-2.6,3.4-4.7,1.3-2.1,2.1-3.7,2.5-4.7h2.3l-.9,13.9h-42v-2.5c.6,0,1.4-.1,2.4-.3,1-.1,1.7-.3,2.1-.4.8-.3,1.3-.8,1.6-1.3.3-.5.4-1.2.4-2v-31.6c0-.8-.1-1.4-.3-1.9-.2-.5-.8-.9-1.7-1.3-.5-.3-1.3-.5-2.3-.7-1-.2-1.7-.3-2.2-.4v-2.5h39.7v11.4Z"/>
        <path class="cls-3" d="M874.2,926.9c-.6,0-1.4.2-2.5.3-1.1.2-2.1.6-3,1.2-.8.6-1.3,1.5-1.7,2.9-.3,1.4-.5,3.4-.5,6.1v32h-5.6l-27.9-34.6v21c0,2.6.2,4.6.5,5.9.3,1.4.9,2.3,1.7,3,.6.5,1.5.9,2.7,1.2,1.2.4,2.2.6,3,.7v2.5h-19.2v-2.5c.8,0,1.8-.2,2.8-.5s1.9-.6,2.7-1.1c.8-.6,1.4-1.5,1.7-2.8.3-1.2.5-3.3.5-6.2v-21.2c0-1.1-.2-2-.5-3-.3-.9-.8-1.7-1.5-2.4-.7-.7-1.6-1.3-2.5-1.7-1-.4-2-.7-3.3-1v-2.5h16.8l24.5,30.3v-16.9c0-2.7-.2-4.7-.5-6-.4-1.3-.9-2.3-1.7-2.9-.6-.5-1.5-.9-2.7-1.2-1.2-.3-2.2-.6-2.9-.7v-2.5h19.2v2.5Z"/>
      </g>
      <g>
        <path class="cls-3" d="M323.3,1078.8c-.6,0-1.1,0-1.5-.3-.4-.2-.8-.5-1.1-1-.3-.5-.7-1.1-1-1.9l-1.2-2.8c-.2-.5-.4-1-.6-1.3-.2-.3-.4-.6-.7-.7-.3-.2-.7-.2-1.2-.2s-.4,0-.6,0c-.2,0-.3,0-.5,0v5.1c0,.4,0,.7.2.9s.4.3.7.3l1.7.2v1.2h-7.1v-1.2l1.4-.2c.3,0,.5-.2.6-.3,0-.2.1-.5.1-.9v-11.8c0-.4,0-.7-.2-.8s-.3-.3-.6-.3l-1.4-.2v-1.2h6.1c1.1,0,2,0,2.8.3.8.2,1.5.5,2,.8s1,.8,1.2,1.4c.3.5.4,1.2.4,1.9s0,.8-.2,1.2-.3.8-.6,1.1c-.2.3-.6.7-.9.9-.4.3-.7.5-1.2.7s-.9.3-1.4.4h0c.6.2,1.1.5,1.5.8.4.3.7.8,1,1.5l.8,2c.2.5.5,1,.7,1.4s.4.7.7.9.6.3,1,.3.3,0,.5,0,.4,0,.6-.2l.2.9c-.3.3-.7.6-1.1.7-.4.2-.8.2-1.3.2ZM316.3,1069.5c.9,0,1.6-.1,2.2-.4.6-.3,1.1-.7,1.4-1.2.3-.5.5-1.2.5-1.9s-.1-1.3-.4-1.8c-.3-.5-.7-.8-1.3-1s-1.4-.3-2.3-.3h-1.4v6.6c.3,0,.6,0,.8,0,.2,0,.4,0,.6,0Z"/>
        <path class="cls-3" d="M336.9,1078.8c-1.2,0-2.2-.3-3.1-.8s-1.5-1.2-2-2.2c-.5-1-.7-2.1-.7-3.3s.2-2.5.7-3.5c.5-1,1.2-1.8,2.1-2.3.9-.5,1.9-.8,3.1-.8s1.7.2,2.3.5c.7.4,1.2.9,1.6,1.5.4.6.6,1.4.6,2.2s0,.7,0,1.1c0,.4-.1.8-.3,1.3h-7.6c0,.9.2,1.7.5,2.4.3.7.8,1.2,1.3,1.5.6.4,1.2.5,2,.5s1.2-.1,1.8-.4c.6-.3,1.1-.6,1.5-1.1l.8.8c-.5.7-1.2,1.3-2.1,1.8-.9.4-1.7.6-2.6.6ZM333.6,1071.2h5.6c0-.2,0-.3,0-.5,0-.2,0-.4,0-.6,0-.9-.2-1.7-.6-2.2-.4-.5-1-.7-1.8-.7s-1.1.2-1.6.5-.8.8-1.1,1.4c-.3.6-.5,1.3-.5,2.2Z"/>
        <path class="cls-3" d="M352.5,1078.5l-3.7-9.6c0-.3-.2-.5-.3-.7,0-.2-.2-.3-.3-.4-.1,0-.3-.2-.5-.2l-.8-.2.2-1.2h5.7v1.1l-1.2.2c-.3,0-.5.2-.6.3,0,.2,0,.5.1.9l2.8,7.8h.1l2.8-7.6c.1-.4.2-.7.1-.9s-.3-.3-.7-.4l-1.1-.2.2-1.1h5v1.1l-.9.2c-.3,0-.5.2-.6.3s-.3.5-.5,1l-3.7,9.6h-2.3Z"/>
        <path class="cls-3" d="M366.1,1078.5v-1.2l1.4-.2c.3,0,.5-.2.6-.3,0-.2.1-.5.1-.9v-6.6c0-.6,0-1-.2-1.2-.1-.2-.3-.3-.7-.4l-1.2-.2.2-1.2,3.8-.2h.3v9.8c0,.3,0,.6.1.7,0,.2.3.3.7.4l1.4.2v1.2h-6.5ZM369,1063.5c-.5,0-.9-.1-1.2-.4s-.5-.7-.5-1.1.2-.9.5-1.2.7-.5,1.2-.5.9.1,1.2.4.5.7.5,1.1-.2.9-.5,1.2-.7.5-1.2.5Z"/>
        <path class="cls-3" d="M379.1,1078.8l-.4-4.2h1.4c.2.5.5,1,.8,1.4s.7.7,1.1.9c.4.2.9.3,1.4.3s1.3-.2,1.7-.5.6-.9.6-1.5,0-.7-.3-.9c-.2-.2-.5-.5-.9-.7-.4-.2-1-.4-1.7-.6-.7-.2-1.3-.4-1.8-.6s-.9-.5-1.2-.8-.5-.6-.7-1c-.1-.4-.2-.8-.2-1.3,0-.7.2-1.4.5-1.9.3-.5.8-1,1.4-1.3s1.4-.4,2.2-.4,1,0,1.5.2c.5.2.9.4,1.2.6l.2-.8h1.1l.3,3.9h-1.4c-.2-.9-.5-1.5-1-1.9-.5-.5-1.1-.7-1.8-.7s-1.2.2-1.6.5c-.4.3-.6.7-.6,1.3s0,.6.2.9c.2.2.4.5.9.7.4.2,1,.4,1.7.6.7.2,1.3.4,1.8.7s.9.5,1.2.8c.3.3.5.6.7,1s.2.8.2,1.3c0,.8-.2,1.5-.6,2.1-.4.6-.9,1.1-1.5,1.4s-1.4.5-2.2.5-1.2,0-1.7-.2c-.5-.1-1-.3-1.3-.6l-.3.8h-1Z"/>
        <path class="cls-3" d="M393.8,1078.5v-1.2l1.4-.2c.3,0,.5-.2.6-.3,0-.2.1-.5.1-.9v-6.6c0-.6,0-1-.2-1.2-.1-.2-.3-.3-.7-.4l-1.2-.2.2-1.2,3.8-.2h.3v9.8c0,.3,0,.6.1.7,0,.2.3.3.7.4l1.4.2v1.2h-6.5ZM396.7,1063.5c-.5,0-.9-.1-1.2-.4s-.5-.7-.5-1.1.2-.9.5-1.2.7-.5,1.2-.5.9.1,1.2.4.5.7.5,1.1-.2.9-.5,1.2-.7.5-1.2.5Z"/>
        <path class="cls-3" d="M412.2,1078.8c-1.2,0-2.2-.3-3.1-.8-.9-.5-1.6-1.2-2-2.1-.5-.9-.7-2-.7-3.3s.2-2.6.7-3.6c.5-1,1.2-1.8,2.1-2.3.9-.5,2-.8,3.3-.8s2.2.2,3,.7c.9.5,1.5,1.2,2,2.1.5.9.7,2,.7,3.3s-.2,2.6-.7,3.6-1.2,1.8-2.1,2.4c-.9.6-2,.8-3.2.8ZM412.5,1077.3c.7,0,1.3-.2,1.8-.5.5-.4.8-.9,1.1-1.6.2-.7.4-1.6.4-2.6s0-1.6-.3-2.2-.4-1.2-.7-1.7c-.3-.5-.7-.8-1.1-1.1-.5-.2-1-.4-1.5-.4s-1.3.2-1.8.5c-.5.4-.9.9-1.1,1.5-.3.7-.4,1.5-.4,2.5s.2,2.1.5,2.9c.3.8.7,1.4,1.3,1.9.6.4,1.2.7,2,.7Z"/>
        <path class="cls-3" d="M424.8,1078.5v-1.1l1.2-.2c.3,0,.4-.1.5-.3,0-.2.1-.4.1-.9v-6.8c0-.6,0-1-.1-1.1,0-.2-.3-.3-.7-.4l-1.2-.2.2-1.2,3.4-.3.3.2.2,2.1h0c.4-.8,1-1.4,1.8-1.8.8-.5,1.6-.7,2.4-.7s1.6.2,2.2.5c.6.3,1,.8,1.3,1.4.3.6.5,1.4.5,2.3v6.1c0,.4,0,.6.1.7s.3.2.6.3l1.1.2v1.1h-5.9v-1.1l1.1-.2c.3,0,.5-.2.6-.3s.1-.4.1-.7v-5.4c0-.8,0-1.4-.2-1.8-.2-.5-.4-.8-.8-1-.4-.2-.8-.3-1.4-.3s-1.3.1-1.8.4c-.5.3-.9.7-1.2,1.2-.3.5-.4,1.1-.4,1.8v5.1c0,.4,0,.6.1.7,0,.1.2.2.5.3l1.3.3v1.1h-5.9Z"/>
        <path class="cls-3" d="M457,1072.8c-.5,0-1-.2-1.3-.5-.3-.3-.5-.8-.5-1.3s.2-1,.5-1.3c.3-.3.8-.5,1.3-.5s1,.2,1.3.5c.3.3.5.8.5,1.3s-.2,1-.5,1.3-.8.5-1.3.5Z"/>
        <path class="cls-3" d="M489,1078.8c-.6,0-1.1,0-1.5-.3-.4-.2-.8-.5-1.1-1-.3-.5-.7-1.1-1-1.9l-1.2-2.8c-.2-.5-.4-1-.6-1.3-.2-.3-.4-.6-.7-.7-.3-.2-.7-.2-1.2-.2s-.4,0-.6,0c-.2,0-.3,0-.5,0v5.1c0,.4,0,.7.2.9s.4.3.7.3l1.7.2v1.2h-7.1v-1.2l1.4-.2c.3,0,.5-.2.6-.3,0-.2.1-.5.1-.9v-11.8c0-.4,0-.7-.2-.8s-.3-.3-.6-.3l-1.4-.2v-1.2h6.1c1.1,0,2,0,2.8.3.8.2,1.5.5,2,.8s1,.8,1.2,1.4c.3.5.4,1.2.4,1.9s0,.8-.2,1.2-.3.8-.6,1.1c-.2.3-.6.7-.9.9-.4.3-.7.5-1.2.7s-.9.3-1.4.4h0c.6.2,1.1.5,1.5.8.4.3.7.8,1,1.5l.8,2c.2.5.5,1,.7,1.4s.4.7.7.9.6.3,1,.3.3,0,.5,0,.4,0,.6-.2l.2.9c-.3.3-.7.6-1.1.7-.4.2-.8.2-1.3.2ZM481.9,1069.5c.9,0,1.6-.1,2.2-.4.6-.3,1.1-.7,1.4-1.2.3-.5.5-1.2.5-1.9s-.1-1.3-.4-1.8c-.3-.5-.7-.8-1.3-1s-1.4-.3-2.3-.3h-1.4v6.6c.3,0,.6,0,.8,0,.2,0,.4,0,.6,0Z"/>
        <path class="cls-3" d="M502.6,1078.8c-1.2,0-2.2-.3-3.1-.8s-1.5-1.2-2-2.2c-.5-1-.7-2.1-.7-3.3s.2-2.5.7-3.5c.5-1,1.2-1.8,2.1-2.3.9-.5,1.9-.8,3.1-.8s1.7.2,2.3.5c.7.4,1.2.9,1.6,1.5.4.6.6,1.4.6,2.2s0,.7,0,1.1c0,.4-.1.8-.3,1.3h-7.6c0,.9.2,1.7.5,2.4.3.7.8,1.2,1.3,1.5.6.4,1.2.5,2,.5s1.2-.1,1.8-.4c.6-.3,1.1-.6,1.5-1.1l.8.8c-.5.7-1.2,1.3-2.1,1.8-.9.4-1.7.6-2.6.6ZM499.2,1071.2h5.6c0-.2,0-.3,0-.5,0-.2,0-.4,0-.6,0-.9-.2-1.7-.6-2.2-.4-.5-1-.7-1.8-.7s-1.1.2-1.6.5-.8.8-1.1,1.4c-.3.6-.5,1.3-.5,2.2Z"/>
        <path class="cls-3" d="M518.7,1084c-.9,0-1.7,0-2.4-.2-.7-.1-1.3-.3-1.7-.6s-.8-.6-1-.9c-.2-.4-.4-.8-.4-1.3s0-.8.2-1.1.4-.6.7-.9c.3-.3.7-.5,1.2-.7h0c-.4-.2-.7-.5-1-.8-.3-.4-.4-.7-.4-1.1s.1-.8.3-1.2c.2-.4.6-.9,1.2-1.5h0c-.6-.4-1-.8-1.3-1.4-.3-.6-.4-1.2-.4-2s.2-1.6.6-2.3c.4-.6,1-1.1,1.8-1.5.8-.4,1.6-.5,2.6-.5s.8,0,1.1,0c.4,0,.7.2,1.1.3.3.1.7.3.9.4.3-.7.6-1.3,1-1.7s.9-.6,1.5-.6.6,0,.8.2c.2.1.4.3.6.4.1.2.2.4.2.7s-.1.7-.4.9c-.3.3-.6.4-1,.4s-.4,0-.6-.2c-.2-.1-.3-.3-.4-.5l-.2-.5c-.1.2-.3.5-.4.7-.1.2-.2.5-.3.8.3.4.5.8.7,1.2.2.5.2.9.2,1.4,0,.9-.2,1.6-.6,2.2s-1,1.1-1.7,1.5c-.7.3-1.6.5-2.6.5s-.7,0-1.1,0c-.4,0-.7-.1-.9-.2-.3.3-.5.6-.6.8-.1.2-.2.4-.2.7s0,.4.2.6c.1.2.3.3.5.3.2,0,.6,0,1,0h3.1c1.5,0,2.6.2,3.2.7s1,1.3,1,2.4,0,1.1-.3,1.5c-.2.5-.5.9-.8,1.2-.4.4-.8.7-1.3.9s-1.1.4-1.8.6c-.7.1-1.4.2-2.2.2ZM518.9,1082.5c.8,0,1.5,0,2.1-.3.6-.2,1-.5,1.3-.8.3-.3.5-.8.5-1.2s-.2-.9-.6-1.1c-.4-.2-.9-.4-1.7-.4h-4.1c-.4.3-.6.6-.8.9-.2.3-.3.7-.3,1.1,0,.6.3,1.1.8,1.4.5.3,1.4.4,2.7.4ZM518.7,1073c.9,0,1.5-.2,2-.7.5-.5.7-1.2.7-2.1s-.2-1.7-.7-2.2c-.5-.5-1.2-.8-2.1-.8s-1.5.2-1.9.7c-.4.5-.6,1.2-.6,2.2s.2,1.6.7,2.1c.5.5,1.1.8,2,.8Z"/>
        <path class="cls-3" d="M531.7,1078.5v-1.1l1.2-.2c.3,0,.4-.1.5-.3,0-.2.1-.4.1-.9v-6.8c0-.6,0-1-.1-1.1,0-.2-.3-.3-.7-.4l-1.2-.2.2-1.2,3.4-.3.3.2.2,2.1h0c.4-.8,1-1.4,1.8-1.8.8-.5,1.6-.7,2.4-.7s1.6.2,2.2.5c.6.3,1,.8,1.3,1.4.3.6.5,1.4.5,2.3v6.1c0,.4,0,.6.1.7s.3.2.6.3l1.1.2v1.1h-5.9v-1.1l1.1-.2c.3,0,.5-.2.6-.3s.1-.4.1-.7v-5.4c0-.8,0-1.4-.2-1.8-.2-.5-.4-.8-.8-1-.4-.2-.8-.3-1.4-.3s-1.3.1-1.8.4c-.5.3-.9.7-1.2,1.2-.3.5-.4,1.1-.4,1.8v5.1c0,.4,0,.6.1.7,0,.1.2.2.5.3l1.3.3v1.1h-5.9Z"/>
        <path class="cls-3" d="M552,1078.8l-.4-4.2h1.4c.2.5.5,1,.8,1.4s.7.7,1.1.9c.4.2.9.3,1.4.3s1.3-.2,1.7-.5.6-.9.6-1.5,0-.7-.3-.9c-.2-.2-.5-.5-.9-.7-.4-.2-1-.4-1.7-.6-.7-.2-1.3-.4-1.8-.6s-.9-.5-1.2-.8-.5-.6-.7-1c-.1-.4-.2-.8-.2-1.3,0-.7.2-1.4.5-1.9.3-.5.8-1,1.4-1.3s1.4-.4,2.2-.4,1,0,1.5.2c.5.2.9.4,1.2.6l.2-.8h1.1l.3,3.9h-1.4c-.2-.9-.5-1.5-1-1.9-.5-.5-1.1-.7-1.8-.7s-1.2.2-1.6.5c-.4.3-.6.7-.6,1.3s0,.6.2.9c.2.2.4.5.9.7.4.2,1,.4,1.7.6.7.2,1.3.4,1.8.7s.9.5,1.2.8c.3.3.5.6.7,1s.2.8.2,1.3c0,.8-.2,1.5-.6,2.1-.4.6-.9,1.1-1.5,1.4s-1.4.5-2.2.5-1.2,0-1.7-.2c-.5-.1-1-.3-1.3-.6l-.3.8h-1Z"/>
        <path class="cls-3" d="M566.7,1078.5v-1.2l1.4-.2c.3,0,.5-.2.6-.3,0-.2.1-.5.1-.9v-12.9c0-.6,0-.9-.2-1.1s-.4-.3-.9-.4l-1.1-.2v-1.2c.1,0,4.1-.1,4.1-.1l.3.3v15.7c0,.4,0,.7.1.8,0,.2.3.3.5.3l.9.2v1.2h-5.9ZM578.4,1078.7c-.4,0-.8,0-1.1-.1-.3,0-.6-.3-.9-.5-.3-.3-.7-.6-1.1-1.1l-4.1-4.9v-.2l3.8-3.5c.2-.2.3-.4.3-.6s-.1-.3-.3-.3l-1.1-.2.2-1.1h5.4v1.1l-.7.2c-.2,0-.5.2-.8.3-.3.1-.6.3-.9.6l-3.6,3,4,4.6c.3.3.5.6.8.7.3.2.6.3,1,.3s.2,0,.3,0,.3,0,.6-.1l.2.9c-.3.3-.7.5-1,.7s-.8.3-1.1.3Z"/>
        <path class="cls-3" d="M589.4,1078.8c-1,0-1.8-.3-2.5-.9-.6-.6-.9-1.4-.9-2.4s.2-1.6.7-2.1c.4-.5,1.2-1,2.2-1.2,1-.3,2.4-.5,4.1-.5v-1.6c0-.7,0-1.2-.3-1.6-.2-.4-.5-.7-.8-.9-.4-.2-.9-.3-1.5-.3s-.9,0-1.3.2-.7.3-.9.5c.1.2.3.5.4.6,0,.2.2.3.2.4,0,.1,0,.2,0,.3,0,.3-.1.6-.4.8-.2.2-.6.3-.9.3s-.8-.1-1-.3c-.2-.2-.4-.5-.4-.9s.2-1.1.6-1.6c.4-.5,1-.9,1.7-1.1.7-.3,1.5-.4,2.3-.4s1.9.2,2.5.5c.7.3,1.2.8,1.5,1.4s.5,1.5.5,2.4v5.8c0,.4,0,.6.3.8.2.2.5.3.8.3s.4,0,.5,0c.2,0,.4,0,.6-.1l.2.9c-.3.3-.6.5-1.1.7s-.8.3-1.2.3c-.7,0-1.2-.2-1.6-.5-.4-.4-.6-.9-.7-1.6-.3.5-.6.9-1,1.2-.4.3-.8.6-1.2.7-.5.2-1,.2-1.5.2ZM590.3,1077.1c.5,0,.9-.1,1.3-.3s.7-.5.9-.9c.2-.4.3-.8.3-1.3v-1.7c-1,0-1.9,0-2.6.3-.7.2-1.2.4-1.5.8-.3.4-.5.8-.5,1.4s.2,1,.5,1.4.8.5,1.4.5Z"/>
        <path class="cls-3" d="M604.5,1078.8l-.6-.2v-15.7c0-.6,0-.9-.2-1.1s-.4-.3-.9-.4l-1.1-.2v-1.2c.1,0,4.1-.1,4.1-.1l.3.3v7.9c.4-.5.8-1,1.2-1.3.4-.3.8-.6,1.3-.7.5-.2,1-.2,1.6-.2,1,0,1.8.2,2.5.7.7.5,1.2,1.2,1.6,2.1s.6,2,.6,3.2-.2,2.7-.7,3.7c-.4,1-1.1,1.8-1.9,2.4s-1.9.8-3,.8-1.4,0-2-.3-1.2-.5-1.7-.8l-1.1,1.1ZM609.2,1077.3c.7,0,1.3-.2,1.8-.6s.9-1,1.1-1.7.4-1.7.4-2.7-.1-1.9-.3-2.6-.6-1.2-1-1.5c-.4-.3-1-.5-1.7-.5s-1.3.1-1.8.4c-.5.3-.9.7-1.2,1.2s-.4,1.2-.4,1.9v5c.4.4.8.6,1.4.8.5.2,1.1.3,1.6.3Z"/>
        <path class="cls-3" d="M633.6,1072.8c-.5,0-1-.2-1.3-.5-.3-.3-.5-.8-.5-1.3s.2-1,.5-1.3c.3-.3.8-.5,1.3-.5s1,.2,1.3.5c.3.3.5.8.5,1.3s-.2,1-.5,1.3-.8.5-1.3.5Z"/>
        <path class="cls-3" d="M665.6,1078.8c-.6,0-1.1,0-1.5-.3-.4-.2-.8-.5-1.1-1-.3-.5-.7-1.1-1-1.9l-1.2-2.8c-.2-.5-.4-1-.6-1.3-.2-.3-.4-.6-.7-.7-.3-.2-.7-.2-1.2-.2s-.4,0-.6,0c-.2,0-.3,0-.5,0v5.1c0,.4,0,.7.2.9s.4.3.7.3l1.7.2v1.2h-7.1v-1.2l1.4-.2c.3,0,.5-.2.6-.3,0-.2.1-.5.1-.9v-11.8c0-.4,0-.7-.2-.8s-.3-.3-.6-.3l-1.4-.2v-1.2h6.1c1.1,0,2,0,2.8.3.8.2,1.5.5,2,.8s1,.8,1.2,1.4c.3.5.4,1.2.4,1.9s0,.8-.2,1.2-.3.8-.6,1.1c-.2.3-.6.7-.9.9-.4.3-.7.5-1.2.7s-.9.3-1.4.4h0c.6.2,1.1.5,1.5.8.4.3.7.8,1,1.5l.8,2c.2.5.5,1,.7,1.4s.4.7.7.9.6.3,1,.3.3,0,.5,0,.4,0,.6-.2l.2.9c-.3.3-.7.6-1.1.7-.4.2-.8.2-1.3.2ZM658.5,1069.5c.9,0,1.6-.1,2.2-.4.6-.3,1.1-.7,1.4-1.2.3-.5.5-1.2.5-1.9s-.1-1.3-.4-1.8c-.3-.5-.7-.8-1.3-1s-1.4-.3-2.3-.3h-1.4v6.6c.3,0,.6,0,.8,0,.2,0,.4,0,.6,0Z"/>
        <path class="cls-3" d="M677.3,1078.8c-1,0-1.8-.3-2.5-.9-.6-.6-.9-1.4-.9-2.4s.2-1.6.7-2.1c.4-.5,1.2-1,2.2-1.2,1-.3,2.4-.5,4.1-.5v-1.6c0-.7,0-1.2-.3-1.6-.2-.4-.5-.7-.8-.9-.4-.2-.9-.3-1.5-.3s-.9,0-1.3.2-.7.3-.9.5c.1.2.3.5.4.6,0,.2.2.3.2.4,0,.1,0,.2,0,.3,0,.3-.1.6-.4.8-.2.2-.6.3-.9.3s-.8-.1-1-.3c-.2-.2-.4-.5-.4-.9s.2-1.1.6-1.6c.4-.5,1-.9,1.7-1.1.7-.3,1.5-.4,2.3-.4s1.9.2,2.5.5c.7.3,1.2.8,1.5,1.4s.5,1.5.5,2.4v5.8c0,.4,0,.6.3.8.2.2.5.3.8.3s.4,0,.5,0c.2,0,.4,0,.6-.1l.2.9c-.3.3-.6.5-1.1.7s-.8.3-1.2.3c-.7,0-1.2-.2-1.6-.5-.4-.4-.6-.9-.7-1.6-.3.5-.6.9-1,1.2-.4.3-.8.6-1.2.7-.5.2-1,.2-1.5.2ZM678.6,1064.4c-.9,0-1.6-.2-2-.7-.4-.5-.6-1.1-.6-1.8s0-.9.3-1.2c.2-.4.5-.7.9-.9.4-.2.9-.3,1.5-.3.9,0,1.5.2,1.9.7.4.4.6,1,.6,1.8s-.1.9-.3,1.3c-.2.4-.5.7-.9.9-.4.2-.9.3-1.4.3ZM678.2,1077.1c.5,0,.9-.1,1.3-.3s.7-.5.9-.9c.2-.4.3-.8.3-1.3v-1.7c-1,0-1.9,0-2.6.3-.7.2-1.2.4-1.5.8-.3.4-.5.8-.5,1.4s.2,1,.5,1.4.8.5,1.4.5ZM678.7,1063.3c.3,0,.5,0,.7-.2s.3-.3.4-.5c0-.2.1-.4.1-.7s0-.5-.1-.7c0-.2-.2-.4-.4-.5-.2-.1-.4-.2-.7-.2s-.5,0-.7.2c-.2.1-.3.3-.4.5,0,.2-.1.4-.1.7s0,.4.1.7c0,.2.2.4.4.5s.4.2.7.2Z"/>
        <path class="cls-3" d="M695.9,1078.8c-1,0-1.9-.2-2.7-.7-.7-.5-1.3-1.2-1.7-2.1-.4-.9-.6-2-.6-3.3s.2-2.6.7-3.6c.5-1,1.2-1.8,2-2.4.9-.6,1.9-.8,3.1-.8s1.1,0,1.6.2,1,.3,1.4.6v-3.8c0-.6,0-.9-.2-1.1-.1-.2-.4-.3-.9-.4l-1.1-.2v-1.2c.1,0,4.1-.1,4.1-.1l.3.3v15.9c0,.4,0,.6.2.8.1.1.3.2.6.3l1.2.2v1.1h-3.7c0,.1-.3-1.8-.3-1.8h0c-.4.5-.7.8-1.1,1.1-.4.3-.9.5-1.3.7-.5.2-1,.2-1.5.2ZM696.6,1077.1c.6,0,1.2-.2,1.7-.5.5-.3.8-.8,1.1-1.3.3-.6.4-1.2.4-1.9v-4.9c-.4-.3-.9-.6-1.4-.7s-1.1-.3-1.6-.3-1.4.2-1.9.6c-.5.4-.9.9-1.1,1.7-.3.7-.4,1.7-.4,2.8s.1,1.8.4,2.5c.2.7.6,1.2,1.1,1.6s1.1.5,1.8.5Z"/>
        <path class="cls-3" d="M715.1,1084c-.9,0-1.7,0-2.4-.2-.7-.1-1.3-.3-1.7-.6s-.8-.6-1-.9c-.2-.4-.4-.8-.4-1.3s0-.8.2-1.1.4-.6.7-.9c.3-.3.7-.5,1.2-.7h0c-.4-.2-.7-.5-1-.8-.3-.4-.4-.7-.4-1.1s.1-.8.3-1.2c.2-.4.6-.9,1.2-1.5h0c-.6-.4-1-.8-1.3-1.4-.3-.6-.4-1.2-.4-2s.2-1.6.6-2.3c.4-.6,1-1.1,1.8-1.5.8-.4,1.6-.5,2.6-.5s.8,0,1.1,0c.4,0,.7.2,1.1.3.3.1.7.3.9.4.3-.7.6-1.3,1-1.7s.9-.6,1.5-.6.6,0,.8.2c.2.1.4.3.6.4.1.2.2.4.2.7s-.1.7-.4.9c-.3.3-.6.4-1,.4s-.4,0-.6-.2c-.2-.1-.3-.3-.4-.5l-.2-.5c-.1.2-.3.5-.4.7-.1.2-.2.5-.3.8.3.4.5.8.7,1.2.2.5.2.9.2,1.4,0,.9-.2,1.6-.6,2.2s-1,1.1-1.7,1.5c-.7.3-1.6.5-2.6.5s-.7,0-1.1,0c-.4,0-.7-.1-.9-.2-.3.3-.5.6-.6.8-.1.2-.2.4-.2.7s0,.4.2.6c.1.2.3.3.5.3.2,0,.6,0,1,0h3.1c1.5,0,2.6.2,3.2.7s1,1.3,1,2.4,0,1.1-.3,1.5c-.2.5-.5.9-.8,1.2-.4.4-.8.7-1.3.9s-1.1.4-1.8.6c-.7.1-1.4.2-2.2.2ZM715.3,1082.5c.8,0,1.5,0,2.1-.3.6-.2,1-.5,1.3-.8.3-.3.5-.8.5-1.2s-.2-.9-.6-1.1c-.4-.2-.9-.4-1.7-.4h-4.1c-.4.3-.6.6-.8.9-.2.3-.3.7-.3,1.1,0,.6.3,1.1.8,1.4.5.3,1.4.4,2.7.4ZM715.1,1073c.9,0,1.5-.2,2-.7.5-.5.7-1.2.7-2.1s-.2-1.7-.7-2.2c-.5-.5-1.2-.8-2.1-.8s-1.5.2-1.9.7c-.4.5-.6,1.2-.6,2.2s.2,1.6.7,2.1c.5.5,1.1.8,2,.8Z"/>
        <path class="cls-3" d="M727.8,1078.5v-1.2l1.4-.2c.3,0,.5-.2.6-.3,0-.2.1-.5.1-.9v-6.6c0-.6,0-1-.2-1.2-.1-.2-.3-.3-.7-.4l-1.2-.2.2-1.2,3.8-.2h.3v9.8c0,.3,0,.6.1.7,0,.2.3.3.7.4l1.4.2v1.2h-6.5ZM730.7,1063.5c-.5,0-.9-.1-1.2-.4s-.5-.7-.5-1.1.2-.9.5-1.2.7-.5,1.2-.5.9.1,1.2.4.5.7.5,1.1-.2.9-.5,1.2-.7.5-1.2.5Z"/>
        <path class="cls-3" d="M744.4,1078.5l-3.7-9.6c0-.3-.2-.5-.3-.7,0-.2-.2-.3-.3-.4-.1,0-.3-.2-.5-.2l-.8-.2.2-1.2h5.7v1.1l-1.2.2c-.3,0-.5.2-.6.3,0,.2,0,.5.1.9l2.8,7.8h.1l2.8-7.6c.1-.4.2-.7.1-.9s-.3-.3-.7-.4l-1.1-.2.2-1.1h5v1.1l-.9.2c-.3,0-.5.2-.6.3s-.3.5-.5,1l-3.7,9.6h-2.3Z"/>
        <path class="cls-3" d="M758.4,1078.5v-1.1l1.2-.2c.3,0,.4-.1.5-.3,0-.2.1-.4.1-.9v-6.8c0-.6,0-1-.1-1.1,0-.2-.3-.3-.7-.4l-1.2-.2.2-1.2,3.4-.3.3.2.2,2.1h0c.4-.8,1-1.4,1.8-1.8.8-.5,1.6-.7,2.4-.7s1.6.2,2.2.5c.6.3,1,.8,1.3,1.4.3.6.5,1.4.5,2.3v6.1c0,.4,0,.6.1.7s.3.2.6.3l1.1.2v1.1h-5.9v-1.1l1.1-.2c.3,0,.5-.2.6-.3s.1-.4.1-.7v-5.4c0-.8,0-1.4-.2-1.8-.2-.5-.4-.8-.8-1-.4-.2-.8-.3-1.4-.3s-1.3.1-1.8.4c-.5.3-.9.7-1.2,1.2-.3.5-.4,1.1-.4,1.8v5.1c0,.4,0,.6.1.7,0,.1.2.2.5.3l1.3.3v1.1h-5.9Z"/>
        <path class="cls-3" d="M778.4,1078.5v-1.2l1.4-.2c.3,0,.5-.2.6-.3,0-.2.1-.5.1-.9v-6.6c0-.6,0-1-.2-1.2-.1-.2-.3-.3-.7-.4l-1.2-.2.2-1.2,3.8-.2h.3v9.8c0,.3,0,.6.1.7,0,.2.3.3.7.4l1.4.2v1.2h-6.5ZM781.3,1063.5c-.5,0-.9-.1-1.2-.4s-.5-.7-.5-1.1.2-.9.5-1.2.7-.5,1.2-.5.9.1,1.2.4.5.7.5,1.1-.2.9-.5,1.2-.7.5-1.2.5Z"/>
        <path class="cls-3" d="M791.2,1078.5v-1.1l1.2-.2c.3,0,.4-.1.5-.3,0-.2.1-.4.1-.9v-6.8c0-.6,0-1-.1-1.1,0-.2-.3-.3-.7-.4l-1.2-.2.2-1.2,3.4-.3.3.2.2,2.1h0c.4-.8,1-1.4,1.8-1.8.8-.5,1.6-.7,2.4-.7s1.6.2,2.2.5c.6.3,1,.8,1.3,1.4.3.6.5,1.4.5,2.3v6.1c0,.4,0,.6.1.7s.3.2.6.3l1.1.2v1.1h-5.9v-1.1l1.1-.2c.3,0,.5-.2.6-.3s.1-.4.1-.7v-5.4c0-.8,0-1.4-.2-1.8-.2-.5-.4-.8-.8-1-.4-.2-.8-.3-1.4-.3s-1.3.1-1.8.4c-.5.3-.9.7-1.2,1.2-.3.5-.4,1.1-.4,1.8v5.1c0,.4,0,.6.1.7,0,.1.2.2.5.3l1.3.3v1.1h-5.9Z"/>
        <path class="cls-3" d="M816.3,1084c-.9,0-1.7,0-2.4-.2-.7-.1-1.3-.3-1.7-.6s-.8-.6-1-.9c-.2-.4-.4-.8-.4-1.3s0-.8.2-1.1.4-.6.7-.9c.3-.3.7-.5,1.2-.7h0c-.4-.2-.7-.5-1-.8-.3-.4-.4-.7-.4-1.1s.1-.8.3-1.2c.2-.4.6-.9,1.2-1.5h0c-.6-.4-1-.8-1.3-1.4-.3-.6-.4-1.2-.4-2s.2-1.6.6-2.3c.4-.6,1-1.1,1.8-1.5.8-.4,1.6-.5,2.6-.5s.8,0,1.1,0c.4,0,.7.2,1.1.3.3.1.7.3.9.4.3-.7.6-1.3,1-1.7s.9-.6,1.5-.6.6,0,.8.2c.2.1.4.3.6.4.1.2.2.4.2.7s-.1.7-.4.9c-.3.3-.6.4-1,.4s-.4,0-.6-.2c-.2-.1-.3-.3-.4-.5l-.2-.5c-.1.2-.3.5-.4.7-.1.2-.2.5-.3.8.3.4.5.8.7,1.2.2.5.2.9.2,1.4,0,.9-.2,1.6-.6,2.2s-1,1.1-1.7,1.5c-.7.3-1.6.5-2.6.5s-.7,0-1.1,0c-.4,0-.7-.1-.9-.2-.3.3-.5.6-.6.8-.1.2-.2.4-.2.7s0,.4.2.6c.1.2.3.3.5.3.2,0,.6,0,1,0h3.1c1.5,0,2.6.2,3.2.7s1,1.3,1,2.4,0,1.1-.3,1.5c-.2.5-.5.9-.8,1.2-.4.4-.8.7-1.3.9s-1.1.4-1.8.6c-.7.1-1.4.2-2.2.2ZM816.5,1082.5c.8,0,1.5,0,2.1-.3.6-.2,1-.5,1.3-.8.3-.3.5-.8.5-1.2s-.2-.9-.6-1.1c-.4-.2-.9-.4-1.7-.4h-4.1c-.4.3-.6.6-.8.9-.2.3-.3.7-.3,1.1,0,.6.3,1.1.8,1.4.5.3,1.4.4,2.7.4ZM816.3,1073c.9,0,1.5-.2,2-.7.5-.5.7-1.2.7-2.1s-.2-1.7-.7-2.2c-.5-.5-1.2-.8-2.1-.8s-1.5.2-1.9.7c-.4.5-.6,1.2-.6,2.2s.2,1.6.7,2.1c.5.5,1.1.8,2,.8Z"/>
      </g>
      <path class="cls-1" d="M545.8,998.1c5.2,5.9,7.7,13.6,6.9,21.4-7.6-4.2-10.6-13.6-6.9-21.4M560.2,1006.7c4.1,4.7,6,10.9,5.3,17.1-6-3.4-8.3-10.9-5.3-17.1ZM568.3,1011.9c5.9,2.2,10.6,6.7,12.9,12.4-6.9-.1-12.5-5.6-12.9-12.4ZM580.8,1015.1c5.8-.6,11.6,1.4,16,5.3-5.9,2.7-12.9.4-16-5.3ZM595.1,1012.7c4.7-2.3,10.1-2.6,15-.7-4,4.1-10.6,4.5-15,.7ZM526.4,1025.5c7.4,2.7,15.5,2.2,22.5-1.4-6.7-5.5-16.5-4.9-22.5,1.4ZM548,1035.8c6.2,0,12.2-2.7,16.3-7.4-6.5-2.2-13.7,1-16.3,7.4ZM568.7,1040.3c6-1.6,11.1-5.8,13.9-11.3-6.9-.5-13,4.5-13.9,11.3ZM588.4,1038c5.2-2.7,9-7.5,10.5-13.2-6.4,1-11,6.7-10.5,13.2ZM606.9,1030c3.8-3.6,5.9-8.7,5.8-13.9-5.3,2.4-7.8,8.5-5.8,13.9ZM615.5,1011.3c-5.6,5.5-12.2,9.7-19.4,12.5-7.2,2.8-14.9,4.1-22.7,3.9-7.8-.3-15.5-2.1-22.4-5.4-5.3-2.5-10.2-5.8-14.6-9.8-10.6-2-18.3-11.5-17.8-22.4,8.9,4.3,15.7,11.9,18.9,21.1,4.2,3.9,9,7.1,14.2,9.6,6.7,3.2,14.1,5,21.7,5.2,7.6.3,15.1-1.1,22-3.8,6.9-2.7,13.3-6.8,18.8-12.2l1.2,1.2Z"/>
    </g>
  </g>
</svg>